<svg width="41" height="41" viewBox="0 0 41 41" fill="none" xmlns="http://www.w3.org/2000/svg">
<rect x="0.5" y="0.371094" width="40" height="40" rx="5" fill="white"/>
<rect x="1" y="0.871094" width="39" height="39" rx="4.5" stroke="#383838" stroke-opacity="0.15"/>
<path d="M12.0038 13.8281C11.952 13.8606 11.905 13.893 11.8579 13.9301C11.905 13.8884 11.952 13.8559 12.0038 13.8281Z" fill="#FB998E"/>
<path d="M17.1384 28.2903C16.3901 29.027 15.2042 29.0873 14.3853 28.4571C13.7453 27.6555 13.8064 26.4831 14.5547 25.7464C15.3124 25.005 16.4937 24.9494 17.3126 25.5749C17.9526 26.3812 17.8961 27.5489 17.1384 28.2903Z" fill="#FB998E"/>
<path d="M29.1489 25.9686C29.0924 26.0474 29.036 26.1076 28.9701 26.1725L25.4781 29.6061C22.7344 32.3075 18.2682 32.3075 15.5197 29.6061L14.555 28.6562C14.4938 28.5913 14.4326 28.5264 14.3855 28.4569C13.7455 27.6553 13.8067 26.483 14.555 25.7462C15.3127 25.0048 16.4939 24.9492 17.3128 25.5748C17.3834 25.6257 17.4493 25.686 17.5105 25.7462L18.4752 26.6961C19.5906 27.7943 21.4072 27.7943 22.5226 26.6961L26.0146 23.2625C26.0758 23.2023 26.1417 23.1421 26.2123 23.0911C27.0264 22.4609 28.2124 22.5165 28.9701 23.2625C29.7184 23.9993 29.7796 25.1624 29.1489 25.9686Z" fill="#D98D44"/>
<path d="M30.3072 24.8514L29.3424 25.8013C28.5283 26.6029 27.2011 26.6029 26.3869 25.8013C25.5728 24.9997 25.5728 23.693 26.3869 22.8913L27.3517 21.9414C28.4671 20.8433 28.4671 19.0546 27.3517 17.9565L23.8644 14.5229C23.0502 13.7213 23.0502 12.4146 23.8644 11.6129C24.6786 10.8113 26.0057 10.8113 26.8199 11.6129L30.3072 15.0465C33.0509 17.7479 33.0509 22.15 30.3072 24.8514Z" fill="#E9BB8E"/>
<path d="M26.306 14.282C25.5483 14.9122 24.4423 14.8658 23.6611 14.2959C23.6611 14.2913 23.6564 14.2913 23.6564 14.2913C23.567 14.2264 23.487 14.1569 23.4117 14.0827L22.541 13.2209C21.4115 12.1134 19.5855 12.1134 18.4607 13.2209L15.0628 16.5664C14.9875 16.6405 14.9028 16.71 14.8181 16.7749C14.9546 16.5942 15.0534 16.3996 15.124 16.1911C15.1381 16.1494 15.1475 16.1123 15.1617 16.0706C15.1852 15.964 15.2087 15.8575 15.2181 15.7509C15.2228 15.6814 15.2276 15.6165 15.2276 15.5516C15.2276 15.0234 15.0252 14.4998 14.6157 14.0966C14.5357 14.0179 14.451 13.9484 14.3616 13.8835C13.9945 13.624 13.5663 13.4943 13.1333 13.4943C13.0674 13.4943 13.0062 13.4989 12.9403 13.5035C12.8933 13.5035 12.8462 13.5174 12.8039 13.5221C12.7521 13.5313 12.705 13.5406 12.658 13.5499C12.6438 13.5545 12.6344 13.5591 12.6203 13.5591C12.5168 13.5869 12.4085 13.624 12.3097 13.6657C12.2062 13.7121 12.1026 13.763 12.0038 13.8279C11.952 13.8603 11.905 13.8928 11.8579 13.9298C11.9097 13.8557 11.9709 13.7908 12.032 13.7306L15.5052 10.3109C18.2631 7.59558 22.734 7.59558 25.4965 10.3109L26.4425 11.2469C26.5036 11.3072 26.5648 11.372 26.6166 11.4415C27.2943 12.2941 27.186 13.5499 26.306 14.282Z" fill="#D16309"/>
<path d="M17.3125 25.5742C16.4936 24.9486 15.3124 25.0042 14.5547 25.7456C13.8064 26.4824 13.7452 27.6547 14.3853 28.4563C14.3147 28.41 14.2488 28.3498 14.1829 28.2895L10.6956 24.856C7.94717 22.1499 7.94717 17.7525 10.6956 15.0464L11.6604 14.0965C11.7216 14.0363 11.7874 13.976 11.858 13.9297C11.9051 13.8926 11.9522 13.8602 12.0039 13.8278C12.1028 13.7629 12.2063 13.7119 12.3098 13.6656C12.4087 13.6239 12.5169 13.5868 12.6204 13.559C12.6346 13.559 12.644 13.5544 12.6581 13.5497C12.7051 13.5405 12.7522 13.5312 12.804 13.5219C12.8463 13.5173 12.8934 13.508 12.9405 13.5034C13.0063 13.4988 13.0675 13.4941 13.1334 13.4941C13.5664 13.4941 13.9947 13.6239 14.3617 13.8834C14.4512 13.9482 14.5359 14.0177 14.6159 14.0965C15.0253 14.4997 15.2277 15.0233 15.2277 15.5515C15.2277 15.6164 15.223 15.6812 15.2183 15.7507C15.2089 15.8573 15.1853 15.9639 15.1618 16.0705C15.1477 16.1122 15.1383 16.1492 15.1241 16.1909C15.0535 16.3995 14.9547 16.5941 14.8182 16.7748H14.8135C14.8135 16.7748 14.7994 16.798 14.79 16.8119C14.7382 16.8814 14.6771 16.9462 14.6159 17.0065L13.6511 17.9564C12.5357 19.0592 12.5357 20.8478 13.6511 21.946L17.1384 25.3796C17.1996 25.4398 17.2608 25.5047 17.3125 25.5742Z" fill="#D4711D"/>
</svg>
