<svg width="40" height="41" viewBox="0 0 40 41" fill="none" xmlns="http://www.w3.org/2000/svg">
<rect x="-0.000488281" y="0.953125" width="40" height="40" rx="5" fill="white"/>
<rect x="0.499512" y="1.45312" width="39" height="39" rx="4.5" stroke="#383838" stroke-opacity="0.15"/>
<path d="M27.0327 12.4574C27.0003 12.4056 26.9678 12.3586 26.9308 12.3115C26.9725 12.3586 27.0049 12.4056 27.0327 12.4574Z" fill="#FB998E"/>
<path d="M12.5706 17.592C11.8338 16.8438 11.7736 15.6578 12.4037 14.8389C13.2054 14.1989 14.3777 14.2601 15.1144 15.0083C15.8558 15.766 15.9114 16.9473 15.2859 17.7662C14.4796 18.4062 13.3119 18.3497 12.5706 17.592Z" fill="#FB998E"/>
<path d="M14.8922 29.6023C14.8135 29.5458 14.7532 29.4893 14.6883 29.4235L11.2548 25.9315C8.55334 23.1877 8.55334 18.7215 11.2548 15.9731L12.2047 15.0083C12.2696 14.9472 12.3344 14.886 12.4039 14.8389C13.2056 14.1989 14.3779 14.2601 15.1146 15.0083C15.856 15.766 15.9116 16.9473 15.2861 17.7662C15.2351 17.8368 15.1749 17.9027 15.1146 17.9638L14.1647 18.9286C13.0666 20.044 13.0666 21.8606 14.1647 22.976L17.5983 26.468C17.6585 26.5291 17.7188 26.595 17.7697 26.6656C18.3999 27.4798 18.3443 28.6658 17.5983 29.4235C16.8615 30.1717 15.6985 30.2329 14.8922 29.6023Z" fill="#31447F"/>
<path d="M16.0094 30.7605L15.0595 29.7957C14.2579 28.9815 14.2579 27.6544 15.0595 26.8402C15.8612 26.026 17.1679 26.026 17.9695 26.8402L18.9194 27.805C20.0176 28.9203 21.8062 28.9203 22.9044 27.805L26.3379 24.3177C27.1396 23.5035 28.4463 23.5035 29.2479 24.3177C30.0495 25.1318 30.0495 26.459 29.2479 27.2732L25.8143 30.7605C23.1129 33.5042 18.7109 33.5042 16.0094 30.7605Z" fill="#25335F"/>
<path d="M26.5788 26.7596C25.9487 26.0019 25.995 24.8959 26.5649 24.1147C26.5696 24.1147 26.5696 24.11 26.5696 24.11C26.6344 24.0206 26.704 23.9406 26.7781 23.8653L27.64 22.9946C28.7474 21.8651 28.7474 20.0391 27.64 18.9143L24.2944 15.5165C24.2203 15.4412 24.1508 15.3564 24.0859 15.2717C24.2666 15.4082 24.4612 15.507 24.6698 15.5776C24.7115 15.5918 24.7485 15.6012 24.7902 15.6153C24.8968 15.6388 25.0034 15.6623 25.11 15.6718C25.1795 15.6765 25.2443 15.6812 25.3092 15.6812C25.8375 15.6812 26.3611 15.4788 26.7642 15.0694C26.843 14.9894 26.9125 14.9046 26.9773 14.8152C27.2368 14.4481 27.3666 14.0199 27.3666 13.5869C27.3666 13.521 27.3619 13.4598 27.3573 13.3939C27.3573 13.3469 27.3434 13.2998 27.3388 13.2575C27.3295 13.2057 27.3202 13.1586 27.311 13.1116C27.3063 13.0975 27.3017 13.088 27.3017 13.0739C27.2739 12.9704 27.2368 12.8621 27.1951 12.7633C27.1488 12.6598 27.0978 12.5562 27.0329 12.4574C27.0005 12.4056 26.9681 12.3586 26.931 12.3115C27.0051 12.3633 27.07 12.4245 27.1303 12.4857L30.5499 15.9588C33.2653 18.7167 33.2653 23.1876 30.5499 25.9501L29.6139 26.8961C29.5537 26.9572 29.4888 27.0184 29.4193 27.0702C28.5667 27.7479 27.311 27.6396 26.5788 26.7596Z" fill="#8597D0"/>
<path d="M15.2865 17.7661C15.9121 16.9473 15.8565 15.766 15.1151 15.0083C14.3783 14.26 13.206 14.1988 12.4044 14.8389C12.4507 14.7683 12.511 14.7024 12.5712 14.6365L16.0048 11.1492C18.7108 8.40078 23.1082 8.40078 25.8143 11.1492L26.7642 12.114C26.8244 12.1752 26.8847 12.2411 26.931 12.3116C26.9681 12.3587 27.0005 12.4058 27.033 12.4575C27.0978 12.5564 27.1488 12.6599 27.1951 12.7634C27.2368 12.8623 27.2739 12.9705 27.3017 13.0741C27.3017 13.0882 27.3063 13.0976 27.311 13.1117C27.3202 13.1588 27.3295 13.2058 27.3388 13.2576C27.3434 13.2999 27.3527 13.347 27.3573 13.3941C27.3619 13.46 27.3666 13.5211 27.3666 13.587C27.3666 14.02 27.2368 14.4483 26.9773 14.8153C26.9125 14.9048 26.843 14.9895 26.7642 15.0695C26.3611 15.4789 25.8375 15.6813 25.3092 15.6813C25.2443 15.6813 25.1795 15.6766 25.11 15.6719C25.0034 15.6625 24.8968 15.6389 24.7902 15.6154C24.7485 15.6013 24.7115 15.5919 24.6698 15.5778C24.4613 15.5072 24.2666 15.4083 24.0859 15.2719V15.2671C24.0859 15.2671 24.0628 15.253 24.0489 15.2436C23.9793 15.1918 23.9145 15.1307 23.8542 15.0695L22.9043 14.1047C21.8015 12.9893 20.0129 12.9893 18.9147 14.1047L15.4812 17.592C15.4209 17.6532 15.356 17.7144 15.2865 17.7661Z" fill="#4A65BE"/>
</svg>
