<svg width="208" height="48" viewBox="0 0 208 48" fill="none" xmlns="http://www.w3.org/2000/svg">
<path d="M49.5198 18.4375C49.4348 18.4907 49.3575 18.544 49.2803 18.6048C49.3575 18.5364 49.4348 18.4831 49.5198 18.4375Z" fill="#FB998E"/>
<path d="M57.9479 42.1776C56.7195 43.387 54.7727 43.4859 53.4285 42.4514C52.3778 41.1355 52.4783 39.2111 53.7066 38.0017C54.9504 36.7846 56.8895 36.6934 58.2337 37.7202C59.2844 39.0437 59.1917 40.9605 57.9479 42.1776Z" fill="#FB998E"/>
<path d="M77.6632 38.3665C77.5705 38.4958 77.4778 38.5946 77.3697 38.7011L71.6374 44.3375C67.1334 48.772 59.802 48.772 55.2903 44.3375L53.7066 42.7782C53.6062 42.6717 53.5058 42.5652 53.4285 42.4511C52.3778 41.1352 52.4783 39.2108 53.7066 38.0013C54.9504 36.7843 56.8895 36.693 58.2337 37.7199C58.3496 37.8036 58.4578 37.9025 58.5582 38.0013L60.1419 39.5607C61.9728 41.3634 64.9549 41.3634 66.7858 39.5607L72.5181 33.9243C72.6185 33.8254 72.7267 33.7265 72.8425 33.6429C74.1791 32.6084 76.1259 32.6997 77.3697 33.9243C78.598 35.1337 78.6984 37.0429 77.6632 38.3665Z" fill="#D98D44"/>
<path d="M79.5639 36.5329L77.9802 38.0922C76.6436 39.4081 74.4651 39.4081 73.1286 38.0922C71.7921 36.7763 71.7921 34.6313 73.1286 33.3154L74.7123 31.7561C76.5432 29.9534 76.5432 27.0173 74.7123 25.2146L68.9877 19.5782C67.6512 18.2623 67.6512 16.1173 68.9877 14.8014C70.3242 13.4855 72.5028 13.4855 73.8393 14.8014L79.5639 20.4377C84.0678 24.8723 84.0678 32.0984 79.5639 36.5329Z" fill="#E9BB8E"/>
<path d="M72.9974 19.183C71.7536 20.2175 69.9381 20.1414 68.6557 19.2058C68.6557 19.1982 68.648 19.1982 68.648 19.1982C68.5012 19.0917 68.3699 18.9776 68.2462 18.8559L66.817 17.4411C64.9629 15.6232 61.9655 15.6232 60.1191 17.4411L54.5413 22.933C54.4177 23.0547 54.2786 23.1688 54.1396 23.2752C54.3636 22.9786 54.5259 22.6591 54.6417 22.3168C54.6649 22.2484 54.6804 22.1875 54.7035 22.1191C54.7422 21.9441 54.7808 21.7692 54.7962 21.5942C54.804 21.4801 54.8117 21.3736 54.8117 21.2672C54.8117 20.4 54.4795 19.5405 53.8074 18.8787C53.6761 18.7494 53.537 18.6353 53.3902 18.5288C52.7876 18.1029 52.0846 17.8899 51.3739 17.8899C51.2657 17.8899 51.1653 17.8975 51.0571 17.9051C50.9799 17.9051 50.9026 17.9279 50.8331 17.9355C50.7481 17.9508 50.6709 17.966 50.5936 17.9812C50.5704 17.9888 50.555 17.9964 50.5318 17.9964C50.3618 18.042 50.1842 18.1029 50.0219 18.1713C49.852 18.2474 49.682 18.3311 49.5198 18.4376C49.4348 18.4908 49.3575 18.5441 49.2803 18.6049C49.3653 18.4832 49.4657 18.3767 49.5661 18.2778L55.2675 12.6643C59.7946 8.20695 67.1338 8.20695 71.6686 12.6643L73.2214 14.2008C73.3219 14.2997 73.4223 14.4062 73.5073 14.5203C74.6197 15.9198 74.4421 17.9812 72.9974 19.183Z" fill="#8597D0"/>
<path d="M58.234 37.7196C56.8898 36.6927 54.9507 36.784 53.7069 38.001C52.4785 39.2104 52.3781 41.1348 53.4288 42.4507C53.3129 42.3747 53.2047 42.2758 53.0966 42.1769L47.372 36.5406C42.8604 32.0984 42.8604 24.8799 47.372 20.4378L48.9557 18.8785C49.0562 18.7796 49.1643 18.6807 49.2802 18.6047C49.3575 18.5438 49.4347 18.4906 49.5197 18.4373C49.6819 18.3308 49.8519 18.2472 50.0219 18.1711C50.1841 18.1026 50.3618 18.0418 50.5317 17.9961C50.5549 17.9961 50.5704 17.9885 50.5935 17.9809C50.6708 17.9657 50.7481 17.9505 50.833 17.9353C50.9026 17.9277 50.9798 17.9125 51.0571 17.9049C51.1652 17.8973 51.2657 17.8896 51.3738 17.8896C52.0846 17.8896 52.7876 18.1026 53.3902 18.5286C53.5369 18.6351 53.676 18.7492 53.8073 18.8785C54.4794 19.5402 54.8116 20.3998 54.8116 21.2669C54.8116 21.3734 54.8039 21.4799 54.7962 21.594C54.7807 21.7689 54.7421 21.9439 54.7035 22.1188C54.6803 22.1873 54.6649 22.2481 54.6417 22.3166C54.5258 22.6589 54.3636 22.9783 54.1395 23.275H54.1318C54.1318 23.275 54.1086 23.313 54.0932 23.3358C54.0082 23.4499 53.9078 23.5564 53.8073 23.6553L52.2236 25.2146C50.3927 27.0249 50.3927 29.961 52.2236 31.7637L57.9482 37.4001C58.0486 37.499 58.149 37.6055 58.234 37.7196Z" fill="#4A65BE"/>
<path d="M7.24647 7.81116V20.6203H23.439C25.4399 20.6203 27.0854 22.2329 27.0854 24.2258C27.0854 26.2187 25.4476 27.7704 23.439 27.7704H7.24647V44.1241C7.24647 46.0714 5.60868 47.6611 3.60006 47.6611C1.59144 47.6611 0 46.0714 0 44.1241V4.20572C0 2.35736 1.44466 0.828474 3.35285 0.676346L3.53826 0.661133H26.0502C28.0279 0.661133 29.6425 2.25087 29.6425 4.20572C29.6425 6.16057 28.0279 7.81116 26.0502 7.81116H7.24647Z" fill="#383838"/>
<path d="M40.435 4.20572V44.1241C40.435 46.0714 38.7972 47.6611 36.7731 47.6611C34.7491 47.6611 33.1808 46.0714 33.1808 44.1241V4.20572C33.1808 2.24327 34.7954 0.661133 36.7731 0.661133C38.7508 0.661133 40.435 2.25087 40.435 4.20572Z" fill="#383838"/>
<path d="M133.257 18.6578L121.877 45.3487C121.614 45.9801 121.189 46.5201 120.641 46.9385C119.984 47.4253 119.312 47.6535 118.625 47.6535L118.053 47.6383C116.902 47.5013 115.882 46.794 115.364 45.8584V45.8432L115.14 45.4172L109.995 33.3686L104.711 45.7519C104.139 46.8852 102.888 47.6535 101.598 47.6535C101.18 47.6535 100.825 47.5698 100.562 47.4861C100.238 47.4329 99.929 47.296 99.6354 47.083C99.1333 46.8092 98.5693 46.3071 98.2062 45.44L86.7803 18.6502C86.0386 16.9008 86.8652 14.8394 88.6035 14.0712C89.5691 13.668 90.6198 13.6833 91.5469 14.1016C92.3889 14.4895 93.0456 15.1817 93.3546 16.0032L101.528 35.0497L106.619 23.1076C107.222 21.7841 108.566 20.9246 109.995 20.9246C111.424 20.9246 112.83 21.7841 113.402 23.062L118.509 35.0268L126.651 15.9348C127.014 15.0676 127.748 14.3602 128.668 14.0179C129.548 13.6756 130.545 13.6833 131.387 14.056C133.141 14.771 134.021 16.8475 133.264 18.635L133.257 18.6578Z" fill="#383838"/>
<path d="M153.991 13.5234C144.667 13.5234 137.088 21.2135 137.088 30.6531C137.088 40.0926 144.675 47.661 153.991 47.661C159.724 47.661 164.992 44.763 168.121 39.8492C169.087 38.2062 168.639 36.1905 167.04 35.0496L166.885 34.9507C166.074 34.4639 165.077 34.327 164.15 34.5628C163.239 34.7833 162.466 35.3614 162.003 36.1373C160.334 38.8832 157.267 40.5794 153.984 40.5794C149.511 40.5794 145.741 37.4912 144.605 33.224H167.179C169.18 33.224 170.771 31.718 170.771 29.8012V29.398C170.045 20.3464 162.837 13.5234 153.991 13.5234ZM145.231 26.1957C146.845 22.8109 150.167 20.605 153.991 20.605C157.816 20.605 161.068 22.8413 162.613 26.1957H145.231Z" fill="#383838"/>
<path d="M191.213 13.5234C181.888 13.5234 174.317 21.2135 174.317 30.6531C174.317 40.0926 181.888 47.661 191.213 47.661C196.945 47.661 202.214 44.763 205.343 39.8492C206.308 38.2062 205.86 36.1753 204.261 35.0496L204.107 34.9507C203.296 34.4639 202.299 34.327 201.372 34.5628C200.46 34.7833 199.688 35.3614 199.224 36.1373C197.556 38.8832 194.489 40.5794 191.205 40.5794C186.748 40.5794 182.962 37.4912 181.827 33.224H204.4C206.401 33.224 207.993 31.718 207.993 29.8012V29.398C207.266 20.3464 200.059 13.5234 191.213 13.5234ZM182.468 26.1957C184.067 22.8109 187.389 20.605 191.213 20.605C195.037 20.605 198.289 22.8413 199.835 26.1957H182.468Z" fill="#383838"/>
</svg>
